<?xml version="1.0" encoding="utf-8"?>
<!-- Generator: Adobe Illustrator 17.0.0, SVG Export Plug-In . SVG Version: 6.00 Build 0)  -->
<svg version="1.2" baseProfile="tiny"
	 xmlns="http://www.w3.org/2000/svg" xmlns:xlink="http://www.w3.org/1999/xlink" x="0px" y="0px" width="217.546px" height="30px"
	 viewBox="0 0 217.546 30" xml:space="preserve">
<path fill="#cc2020" d="M64.904,16.584c-13.896,4.279-18.66,7.164-29.236,11.136c-4.826,1.813-12.693,3.394-20.403,1.24
	C7.817,26.878,1.87,22.544,0.582,18.499c-2.011-6.317,1.406-11.124,6.873-14.36c2.213-1.31,6.565-3.445,12.401-4.033
	c4.785-0.482,11.262,0.715,16.714,2.649c5.835,2.07,11.911,5.534,20.813,7.586C50.647,9.749,39.035,7.586,31.67,5.887
	c-13.887-3.204-21.568,1.441-17.01,6.964c0.774,0.938,3.3,2.327,4.779,3.35c3.296-2.015,8.71-3.895,13.101-4.106
	c6.122-0.294,15.58,1.034,28.604,2.241c-13.444,0.757-15.67,1.211-23.972,2.015c-6.906,0.669-9.979,2.556-12.666,3.62
	c4.132,3.419,5.943,2.636,13.901,0.637C44.938,18.967,54.317,16.584,64.904,16.584z"/>
	<g>
	<path fill="#1D1D1B" d="M86.266,21.188c-0.944,0-1.82-0.132-2.628-0.396c-0.809-0.264-1.512-0.66-2.112-1.188
		c-0.6-0.527-1.072-1.191-1.416-1.991s-0.516-1.736-0.516-2.809c0-1.056,0.172-1.964,0.516-2.724s0.796-1.384,1.356-1.872
		c0.56-0.488,1.2-0.848,1.92-1.08c0.72-0.231,1.456-0.348,2.208-0.348c0.848,0,1.62,0.128,2.315,0.384
		c0.696,0.256,1.297,0.608,1.801,1.056c0.504,0.448,0.896,0.984,1.176,1.608c0.279,0.624,0.42,1.304,0.42,2.04
		c0,0.544-0.152,0.96-0.456,1.248s-0.729,0.472-1.272,0.552l-5.928,0.888c0.176,0.528,0.536,0.924,1.08,1.188
		c0.544,0.264,1.168,0.396,1.872,0.396c0.656,0,1.275-0.084,1.86-0.252c0.584-0.168,1.06-0.363,1.428-0.588
		c0.256,0.16,0.472,0.384,0.648,0.672c0.176,0.288,0.264,0.593,0.264,0.912c0,0.72-0.336,1.257-1.008,1.608
		c-0.513,0.272-1.089,0.456-1.729,0.552S86.825,21.188,86.266,21.188z M85.594,11.757c-0.384,0-0.717,0.064-0.996,0.192
		c-0.28,0.128-0.508,0.292-0.684,0.492c-0.177,0.2-0.309,0.424-0.396,0.672s-0.141,0.5-0.156,0.756l4.104-0.672
		c-0.048-0.32-0.225-0.64-0.528-0.96S86.186,11.757,85.594,11.757z"/>
		<path fill="#1D1D1B" d="M101.865,13.413c0-0.496-0.14-0.86-0.42-1.092c-0.28-0.232-0.66-0.349-1.14-0.349
		c-0.32,0-0.636,0.04-0.948,0.12c-0.312,0.08-0.58,0.2-0.804,0.36v8.328c-0.16,0.048-0.412,0.096-0.756,0.144
		c-0.345,0.048-0.7,0.072-1.068,0.072c-0.352,0-0.668-0.024-0.948-0.072s-0.516-0.144-0.708-0.288
		c-0.191-0.144-0.34-0.34-0.443-0.588c-0.104-0.248-0.156-0.571-0.156-0.972v-7.2c0-0.432,0.092-0.784,0.276-1.056
		c0.184-0.272,0.436-0.521,0.756-0.744c0.544-0.384,1.228-0.696,2.052-0.937c0.824-0.239,1.74-0.359,2.748-0.359
		c1.808,0,3.2,0.396,4.176,1.188s1.464,1.893,1.464,3.3v7.513c-0.16,0.048-0.412,0.096-0.756,0.144s-0.7,0.072-1.067,0.072
		c-0.353,0-0.669-0.024-0.948-0.072c-0.28-0.048-0.517-0.144-0.708-0.288c-0.192-0.144-0.341-0.34-0.444-0.588
		c-0.104-0.248-0.156-0.571-0.156-0.972V13.413z"/>
		<path fill="#1D1D1B" d="M115.835,21.188c-0.945,0-1.821-0.132-2.628-0.396c-0.809-0.264-1.512-0.66-2.112-1.188
		c-0.6-0.527-1.072-1.191-1.416-1.991s-0.516-1.736-0.516-2.809c0-1.056,0.172-1.964,0.516-2.724s0.796-1.384,1.356-1.872
		c0.56-0.488,1.2-0.848,1.92-1.08c0.72-0.231,1.456-0.348,2.208-0.348c0.848,0,1.62,0.128,2.315,0.384
		c0.696,0.256,1.297,0.608,1.801,1.056c0.504,0.448,0.896,0.984,1.176,1.608c0.279,0.624,0.42,1.304,0.42,2.04
		c0,0.544-0.152,0.96-0.456,1.248s-0.729,0.472-1.272,0.552l-5.928,0.888c0.176,0.528,0.536,0.924,1.08,1.188
		c0.544,0.264,1.168,0.396,1.873,0.396c0.656,0,1.275-0.084,1.86-0.252c0.584-0.168,1.06-0.363,1.428-0.588
		c0.256,0.16,0.472,0.384,0.648,0.672c0.176,0.288,0.264,0.593,0.264,0.912c0,0.72-0.336,1.257-1.008,1.608
		c-0.513,0.272-1.089,0.456-1.729,0.552S116.394,21.188,115.835,21.188z M115.163,11.757c-0.384,0-0.717,0.064-0.997,0.192
		c-0.28,0.128-0.508,0.292-0.684,0.492c-0.177,0.2-0.309,0.424-0.396,0.672s-0.141,0.5-0.156,0.756l4.105-0.672
		c-0.048-0.32-0.225-0.64-0.528-0.96S115.755,11.757,115.163,11.757z"/>
		<path fill="#1D1D1B" d="M128.122,20.781c-0.16,0.048-0.412,0.096-0.756,0.144c-0.345,0.048-0.7,0.072-1.068,0.072
		c-0.352,0-0.668-0.024-0.948-0.072s-0.516-0.144-0.708-0.288c-0.191-0.144-0.34-0.34-0.443-0.588
		c-0.104-0.248-0.156-0.571-0.156-0.972v-7.2c0-0.368,0.067-0.684,0.204-0.948c0.136-0.264,0.332-0.5,0.588-0.708
		s0.572-0.396,0.948-0.563c0.375-0.168,0.779-0.316,1.212-0.444c0.432-0.128,0.88-0.228,1.344-0.3s0.928-0.108,1.392-0.108
		c0.769,0,1.376,0.148,1.824,0.444s0.672,0.78,0.672,1.452c0,0.224-0.032,0.443-0.096,0.66c-0.064,0.216-0.144,0.412-0.24,0.588
		c-0.336,0-0.68,0.016-1.031,0.048c-0.353,0.032-0.696,0.08-1.032,0.144c-0.336,0.064-0.652,0.132-0.948,0.204
		s-0.548,0.156-0.756,0.252V20.781z"/>
		<path fill="#1D1D1B" d="M140.506,8.781c0.912,0,1.74,0.116,2.484,0.348c0.744,0.232,1.372,0.532,1.884,0.9
		c0.32,0.224,0.572,0.472,0.756,0.743c0.185,0.272,0.276,0.624,0.276,1.057v8.399c0,0.849-0.16,1.58-0.479,2.196
		c-0.32,0.616-0.757,1.128-1.309,1.536s-1.2,0.708-1.944,0.9c-0.743,0.191-1.54,0.288-2.388,0.288c-1.456,0-2.6-0.196-3.432-0.589
		c-0.832-0.392-1.248-1.028-1.248-1.907c0-0.368,0.075-0.692,0.228-0.973s0.324-0.492,0.517-0.636
		c0.464,0.256,0.987,0.472,1.571,0.648c0.584,0.176,1.188,0.264,1.813,0.264c0.864,0,1.552-0.145,2.063-0.432
		c0.513-0.288,0.769-0.752,0.769-1.393v-0.384c-0.656,0.288-1.456,0.432-2.4,0.432c-0.72,0-1.403-0.107-2.052-0.324
		c-0.647-0.216-1.216-0.552-1.704-1.008s-0.88-1.044-1.176-1.764s-0.444-1.576-0.444-2.568c0-0.976,0.156-1.823,0.469-2.544
		c0.312-0.72,0.743-1.315,1.296-1.788c0.552-0.472,1.207-0.823,1.968-1.056C138.782,8.897,139.61,8.781,140.506,8.781z
		 M141.994,12.26c-0.112-0.063-0.275-0.128-0.492-0.191c-0.216-0.064-0.483-0.097-0.804-0.097c-0.784,0-1.372,0.221-1.764,0.66
		c-0.393,0.44-0.588,1.068-0.588,1.884c0,0.929,0.195,1.597,0.588,2.004c0.392,0.408,0.892,0.612,1.5,0.612
		c0.655,0,1.176-0.151,1.56-0.456V12.26z"/>
		<path fill="#1D1D1B" d="M149.53,5.901c0-0.608,0.204-1.12,0.611-1.536c0.408-0.416,0.948-0.624,1.62-0.624s1.212,0.208,1.62,0.624
		s0.612,0.928,0.612,1.536s-0.204,1.12-0.612,1.536c-0.408,0.417-0.948,0.624-1.62,0.624s-1.212-0.207-1.62-0.624
		C149.734,7.021,149.53,6.508,149.53,5.901z M153.801,20.781c-0.176,0.031-0.436,0.075-0.78,0.132
		c-0.344,0.056-0.691,0.084-1.044,0.084c-0.352,0-0.668-0.024-0.947-0.072c-0.28-0.048-0.517-0.144-0.708-0.288
		c-0.192-0.144-0.341-0.34-0.444-0.588c-0.104-0.248-0.156-0.571-0.156-0.972V9.308c0.176-0.031,0.436-0.075,0.78-0.132
		c0.344-0.056,0.691-0.084,1.044-0.084c0.352,0,0.668,0.024,0.948,0.072c0.279,0.048,0.516,0.144,0.708,0.288
		c0.191,0.144,0.34,0.34,0.443,0.588c0.104,0.248,0.156,0.572,0.156,0.972V20.781z"/>
		<path fill="#1D1D1B" d="M162.393,8.781c0.864,0,1.652,0.088,2.364,0.264s1.32,0.444,1.824,0.804
		c0.504,0.36,0.892,0.816,1.164,1.368c0.271,0.552,0.407,1.204,0.407,1.956v5.376c0,0.416-0.116,0.756-0.348,1.021
		c-0.232,0.264-0.508,0.491-0.828,0.684c-1.04,0.624-2.504,0.936-4.392,0.936c-0.849,0-1.612-0.08-2.292-0.239
		c-0.681-0.16-1.265-0.4-1.752-0.721c-0.488-0.319-0.864-0.728-1.128-1.224c-0.265-0.496-0.396-1.071-0.396-1.728
		c0-1.104,0.328-1.952,0.984-2.544c0.655-0.592,1.672-0.961,3.048-1.104l3.144-0.336v-0.168c0-0.464-0.204-0.796-0.611-0.996
		c-0.408-0.2-0.996-0.3-1.765-0.3c-0.608,0-1.199,0.063-1.775,0.191c-0.576,0.129-1.097,0.288-1.561,0.48
		c-0.208-0.145-0.384-0.364-0.527-0.66c-0.145-0.296-0.217-0.604-0.217-0.924c0-0.416,0.101-0.748,0.301-0.996
		c0.199-0.248,0.508-0.46,0.924-0.636c0.464-0.176,1.012-0.304,1.644-0.384S161.833,8.781,162.393,8.781z M162.586,18.213
		c0.271,0,0.571-0.027,0.899-0.084c0.328-0.056,0.572-0.132,0.732-0.228V15.98l-1.729,0.145c-0.447,0.032-0.815,0.128-1.104,0.288
		s-0.432,0.4-0.432,0.72c0,0.32,0.123,0.58,0.372,0.78C161.573,18.113,161.993,18.213,162.586,18.213z"/>
		<path fill="#cc2020" d="M171.13,18.861c0-0.673,0.207-1.232,0.624-1.681c0.416-0.447,0.983-0.672,1.704-0.672
		c0.72,0,1.287,0.225,1.703,0.672c0.416,0.448,0.624,1.008,0.624,1.681c0,0.672-0.208,1.231-0.624,1.68
		c-0.416,0.447-0.983,0.672-1.703,0.672c-0.721,0-1.288-0.225-1.704-0.672C171.337,20.092,171.13,19.533,171.13,18.861z"/>
		<path fill="#1D1D1B" d="M184.689,21.188c-0.944,0-1.82-0.132-2.628-0.396c-0.809-0.264-1.512-0.66-2.112-1.188
		c-0.6-0.527-1.072-1.191-1.416-1.991s-0.516-1.736-0.516-2.809c0-1.056,0.172-1.964,0.516-2.724s0.796-1.384,1.356-1.872
		c0.56-0.488,1.2-0.848,1.92-1.08c0.72-0.231,1.456-0.348,2.208-0.348c0.848,0,1.62,0.128,2.315,0.384
		c0.696,0.256,1.297,0.608,1.801,1.056c0.504,0.448,0.896,0.984,1.176,1.608c0.279,0.624,0.42,1.304,0.42,2.04
		c0,0.544-0.152,0.96-0.456,1.248s-0.729,0.472-1.272,0.552l-5.928,0.888c0.176,0.528,0.536,0.924,1.08,1.188
		c0.544,0.264,1.168,0.396,1.872,0.396c0.656,0,1.275-0.084,1.86-0.252c0.584-0.168,1.06-0.363,1.428-0.588
		c0.256,0.16,0.472,0.384,0.648,0.672c0.176,0.288,0.264,0.593,0.264,0.912c0,0.72-0.336,1.257-1.008,1.608
		c-0.513,0.272-1.089,0.456-1.729,0.552S185.249,21.188,184.689,21.188z M184.017,11.757c-0.384,0-0.717,0.064-0.996,0.192
		c-0.28,0.128-0.508,0.292-0.684,0.492c-0.177,0.2-0.309,0.424-0.396,0.672s-0.141,0.5-0.156,0.756l4.104-0.672
		c-0.048-0.32-0.225-0.64-0.528-0.96S184.609,11.757,184.017,11.757z"/>
		<path fill="#1D1D1B" d="M199.473,11.997c-0.4,0-0.78,0.064-1.141,0.191c-0.359,0.129-0.672,0.316-0.936,0.564
		s-0.477,0.556-0.636,0.924c-0.16,0.368-0.24,0.801-0.24,1.296c0,0.992,0.284,1.736,0.852,2.232
		c0.568,0.496,1.261,0.744,2.076,0.744c0.48,0,0.896-0.057,1.248-0.168c0.352-0.112,0.664-0.232,0.937-0.36
		c0.319,0.225,0.56,0.468,0.72,0.732c0.159,0.264,0.24,0.58,0.24,0.947c0,0.656-0.313,1.164-0.937,1.524s-1.488,0.54-2.592,0.54
		c-1.008,0-1.92-0.148-2.736-0.444c-0.815-0.296-1.516-0.712-2.1-1.248c-0.584-0.535-1.036-1.18-1.356-1.932
		s-0.479-1.584-0.479-2.496c0-1.056,0.172-1.98,0.516-2.772s0.813-1.443,1.404-1.955c0.592-0.513,1.275-0.896,2.052-1.152
		s1.596-0.384,2.46-0.384c1.152,0,2.04,0.208,2.664,0.624s0.937,0.952,0.937,1.607c0,0.305-0.072,0.588-0.217,0.853
		c-0.144,0.264-0.312,0.491-0.504,0.684c-0.271-0.128-0.6-0.252-0.983-0.372S199.921,11.997,199.473,11.997z"/>
		<path fill="#1D1D1B" d="M217.546,14.972c0,0.992-0.152,1.876-0.456,2.652c-0.305,0.776-0.732,1.428-1.284,1.956
		s-1.212,0.928-1.98,1.2c-0.768,0.271-1.624,0.407-2.567,0.407c-0.944,0-1.8-0.144-2.568-0.432
		c-0.768-0.288-1.428-0.699-1.979-1.236c-0.553-0.535-0.98-1.188-1.284-1.956c-0.305-0.768-0.456-1.632-0.456-2.592
		c0-0.943,0.151-1.8,0.456-2.567c0.304-0.769,0.731-1.42,1.284-1.956c0.552-0.536,1.212-0.948,1.979-1.236
		c0.769-0.288,1.624-0.432,2.568-0.432c0.943,0,1.8,0.147,2.567,0.443c0.769,0.297,1.429,0.713,1.98,1.248
		c0.552,0.536,0.979,1.188,1.284,1.956C217.393,13.197,217.546,14.045,217.546,14.972z M209.145,14.972
		c0,0.977,0.188,1.725,0.564,2.244c0.375,0.521,0.899,0.78,1.571,0.78s1.188-0.264,1.548-0.792c0.36-0.528,0.54-1.272,0.54-2.232
		s-0.184-1.699-0.552-2.22c-0.368-0.52-0.888-0.78-1.56-0.78s-1.192,0.261-1.561,0.78C209.329,13.273,209.145,14.012,209.145,14.972
		z"/>
</g>
	<g>
</g>
	<g>
</g>
	<g>
</g>
	<g>
</g>
	<g>
</g>
	<g>
</g>
</svg>